<mxfile host="65bd71144e">
    <diagram id="cEUJRrccXJAMWC24XGrG" name="Page-1">
        <mxGraphModel dx="1278" dy="1076" grid="1" gridSize="10" guides="1" tooltips="1" connect="1" arrows="1" fold="1" page="1" pageScale="1" pageWidth="850" pageHeight="1100" math="0" shadow="0">
            <root>
                <mxCell id="0"/>
                <mxCell id="1" parent="0"/>
                <mxCell id="8" value="person" style="swimlane;whiteSpace=wrap;html=1;" vertex="1" parent="1">
                    <mxGeometry x="120" y="40" width="870" height="790" as="geometry"/>
                </mxCell>
                <mxCell id="10" value="datos" style="swimlane;whiteSpace=wrap;html=1;" vertex="1" parent="8">
                    <mxGeometry x="50" y="60" width="200" height="200" as="geometry"/>
                </mxCell>
                <mxCell id="11" value="modelos" style="swimlane;whiteSpace=wrap;html=1;" vertex="1" parent="8">
                    <mxGeometry x="50" y="300" width="200" height="200" as="geometry"/>
                </mxCell>
                <mxCell id="12" value="script" style="swimlane;whiteSpace=wrap;html=1;" vertex="1" parent="8">
                    <mxGeometry x="50" y="550" width="200" height="200" as="geometry"/>
                </mxCell>
                <mxCell id="13" value="" style="rounded=1;whiteSpace=wrap;html=1;" vertex="1" parent="8">
                    <mxGeometry x="410" y="100" width="120" height="60" as="geometry"/>
                </mxCell>
            </root>
        </mxGraphModel>
    </diagram>
</mxfile>